<svg width="24" height="24" viewBox="0 0 24 24" fill="none" xmlns="http://www.w3.org/2000/svg">
<path d="M2.40039 5.22363L5.30679 10.4186V13.5874L2.40379 18.7722L2.40039 5.22363Z" fill="#5B57A2"/>
<path d="M13.5596 8.52889L16.283 6.85969L21.8566 6.85449L13.5596 11.9373V8.52889Z" fill="#D90751"/>
<path d="M13.5443 5.19339L13.5597 12.0714L10.6465 10.2814V0L13.5445 5.19339H13.5443Z" fill="#FAB718"/>
<path d="M21.8567 6.85419L16.2829 6.85939L13.5443 5.19339L10.6465 0L21.8565 6.85419H21.8567Z" fill="#ED6F26"/>
<path d="M13.5597 18.801V15.464L10.6465 13.708L10.6481 23.9996L13.5597 18.801Z" fill="#63B22F"/>
<path d="M16.2764 17.147L5.30659 10.4186L2.40039 5.22363L21.845 17.1402L16.2762 17.147H16.2764Z" fill="#1487C9"/>
<path d="M10.6484 24L13.5596 18.8014L16.2762 17.1474L21.8448 17.1406L10.6484 24Z" fill="#017F36"/>
<path d="M2.40332 18.7721L10.6699 13.7081L7.89072 12.0029L5.30632 13.5873L2.40332 18.7721Z" fill="#984995"/>
</svg>
