<svg width="32" height="32" viewBox="0 0 32 32" fill="none" xmlns="http://www.w3.org/2000/svg">
<path d="M6 0.625H26C28.9685 0.625 31.375 3.03147 31.375 6V26C31.375 28.9685 28.9685 31.375 26 31.375H6C3.03147 31.375 0.625 28.9685 0.625 26V6C0.625 3.03147 3.03147 0.625 6 0.625Z" stroke="white" stroke-width="1.25"/>
<path fill-rule="evenodd" clip-rule="evenodd" d="M26 1.25H6C3.37665 1.25 1.25 3.37665 1.25 6V26C1.25 28.6234 3.37665 30.75 6 30.75H26C28.6234 30.75 30.75 28.6234 30.75 26V6C30.75 3.37665 28.6234 1.25 26 1.25ZM6 0C2.68629 0 0 2.68629 0 6V26C0 29.3137 2.68629 32 6 32H26C29.3137 32 32 29.3137 32 26V6C32 2.68629 29.3137 0 26 0H6Z" fill="white"/>
<path d="M8 7.99902H11.2V11.199H14.4V14.399H17.6V17.599L14.4 17.599V20.799L11.2 20.799V23.999H8V17.599L11.2 17.599V14.399H8V7.99902Z" fill="white"/>
<path d="M17.6 20.799V17.599L20.8 17.599V20.799L17.6 20.799Z" fill="white"/>
<path d="M20.8 20.799H24V23.999H20.8V20.799Z" fill="white"/>
<path d="M17.6 20.799L14.4 20.799V23.999H17.6L17.6 20.799Z" fill="white"/>
<path d="M20.8 17.599L20.8 14.399H17.6L17.6 11.199H14.4V7.99902H20.8V11.199H24V17.599H20.8Z" fill="white"/>
</svg>
