<svg width="20" height="21" viewBox="0 0 20 21" fill="none" xmlns="http://www.w3.org/2000/svg">
<path d="M9.99967 8.8335C10.6178 8.8335 11.2219 8.65022 11.7358 8.30684C12.2498 7.96346 12.6503 7.47541 12.8868 6.90438C13.1233 6.33336 13.1852 5.70503 13.0646 5.09884C12.9441 4.49265 12.6464 3.93583 12.2094 3.49879C11.7723 3.06175 11.2155 2.76412 10.6093 2.64355C10.0032 2.52296 9.37484 2.58485 8.80376 2.82137C8.23277 3.0579 7.74471 3.45844 7.40133 3.97234C7.05795 4.48625 6.87467 5.09043 6.87467 5.7085C6.87562 6.53701 7.20517 7.33131 7.79102 7.91716C8.37684 8.50301 9.17117 8.83255 9.99967 8.8335ZM16.4222 13.6545C14.7176 11.9536 12.4078 10.9982 9.99967 10.9982C7.59157 10.9982 5.2818 11.9536 3.57717 13.6545C3.42084 13.8108 3.33301 14.0228 3.33301 14.2438V17.0002C3.33301 17.5524 3.78072 18.0002 4.33301 18.0002H15.6663C16.2186 18.0002 16.6663 17.5524 16.6663 17.0002V14.2438C16.6663 14.0228 16.5785 13.8108 16.4222 13.6545Z" fill="white"/>
</svg>
