<svg width="24" height="24" viewBox="0 0 24 24" fill="none" xmlns="http://www.w3.org/2000/svg">
<path d="M2.11868 7.80769C2.87508 11.2523 4.60497 14.4071 7.10258 16.8969C9.59239 19.3945 12.7472 21.1244 16.1917 21.8808C17.2734 22.0996 18.3978 21.9089 19.3468 21.3456C20.2957 20.7823 21.0017 19.8866 21.3275 18.8322L21.5796 18.0443C21.7299 17.5747 21.5154 17.0656 21.0744 16.8451L17.5053 15.0606C17.1203 14.8681 16.6553 14.9436 16.351 15.2479L14.4755 17.1234C12.7873 16.3902 11.2472 15.355 9.93088 14.0685C8.64446 12.7522 7.60922 11.212 6.87608 9.52379L8.75153 7.64835C9.05589 7.34399 9.13134 6.87901 8.93885 6.49403L7.15434 2.92501C6.93383 2.484 6.42478 2.26953 5.95516 2.41979L5.16728 2.67189C4.11292 2.99779 3.21721 3.7037 2.6539 4.65268C2.09059 5.60165 1.89985 6.72604 2.11868 7.80769Z" fill="white"/>
</svg>
